<?xml version="1.0" standalone="no"?>
<!DOCTYPE svg PUBLIC "-//W3C//DTD SVG 20010904//EN"
 "http://www.w3.org/TR/2001/REC-SVG-20010904/DTD/svg10.dtd">
<svg version="1.0" xmlns="http://www.w3.org/2000/svg"
 width="900.000000pt" height="900.000000pt" viewBox="0 0 900.000000 900.000000"
 preserveAspectRatio="xMidYMid meet">
<metadata>
Created by potrace 1.15, written by Peter Selinger 2001-2017
</metadata>
<g transform="translate(0.000000,900.000000) scale(0.100000,-0.100000)"
fill="#000000" stroke="none">
<path d="M3815 6905 c-22 -8 -52 -15 -67 -15 -15 0 -30 -4 -33 -10 -3 -5 -21
-10 -38 -10 -71 0 -67 -13 38 -119 l99 -101 19 42 c15 33 17 46 8 60 -14 22
-15 88 -1 88 6 0 10 11 10 25 0 14 5 25 10 25 14 0 12 -20 -5 -50 -16 -28 -20
-80 -6 -80 11 0 21 25 21 54 0 12 5 27 11 33 15 15 7 67 -11 70 -8 1 -33 -4
-55 -12z"/>
<path d="M4061 6463 c-13 -54 -27 -108 -32 -121 -19 -48 -10 -62 119 -187 70
-68 129 -122 130 -120 2 2 -1 49 -7 105 -6 55 -11 136 -11 179 l0 79 -81 78
c-44 44 -83 80 -87 82 -4 1 -18 -42 -31 -95z"/>
<path d="M5796 5454 c-66 -45 -212 -145 -324 -220 -112 -76 -205 -140 -207
-144 -3 -4 31 -40 75 -80 44 -39 80 -77 80 -84 0 -7 -35 -23 -77 -35 -43 -13
-89 -27 -103 -31 -14 -5 -41 -13 -60 -18 -84 -23 -458 -134 -485 -144 -16 -7
-88 -52 -158 -100 -70 -49 -132 -86 -137 -83 -6 4 -10 24 -10 47 0 40 0 40
-32 35 -35 -5 -168 -44 -175 -51 -4 -3 29 -68 47 -91 4 -5 19 -31 34 -57 14
-27 38 -69 52 -95 15 -27 30 -52 34 -58 4 -5 17 -27 29 -47 54 -96 67 -119
123 -215 33 -57 61 -103 62 -103 3 0 119 46 151 59 72 31 129 50 133 46 6 -6
-8 -109 -53 -389 -14 -89 -14 -101 0 -122 8 -13 27 -45 42 -71 14 -26 34 -61
42 -77 9 -16 20 -28 25 -28 5 0 25 29 43 64 19 35 38 68 43 73 4 6 19 30 32
55 14 25 42 74 63 110 21 36 49 85 63 110 14 25 33 57 43 72 11 14 19 29 19
32 0 3 20 40 45 82 25 41 45 77 45 79 0 1 25 44 55 94 30 51 55 94 55 97 0 3
8 18 19 32 10 15 29 47 43 72 14 25 38 68 53 95 15 28 36 62 46 77 11 14 19
28 19 31 0 2 36 66 80 142 44 76 80 140 80 142 0 3 8 17 19 31 10 15 30 48 45
75 14 26 38 68 52 95 15 26 35 59 45 74 11 14 19 29 19 31 0 3 29 56 65 117
64 109 88 151 141 248 15 26 36 59 46 75 11 15 18 28 16 28 -2 1 -65 2 -142 4
l-138 2 -122 -83z"/>
<path d="M5924 4757 c-12 -18 -34 -54 -49 -82 -15 -27 -31 -54 -35 -60 -4 -5
-19 -31 -34 -57 -69 -126 -80 -145 -97 -170 -11 -14 -19 -29 -19 -32 0 -3 -20
-40 -45 -82 -25 -41 -45 -77 -45 -80 0 -2 -16 -28 -35 -58 -19 -30 -35 -58
-35 -61 0 -4 -7 -13 -15 -21 -20 -21 -19 -38 3 -29 26 11 255 80 342 103 19 6
67 19 105 31 39 12 88 26 110 33 68 18 97 27 175 51 41 13 100 30 130 37 30 8
59 17 63 21 5 3 -18 31 -50 60 -32 30 -120 115 -197 189 -76 74 -144 140 -150
145 -7 6 -32 29 -57 52 l-44 42 -21 -32z"/>
<path d="M3950 4478 c-36 -11 -96 -29 -135 -40 -38 -11 -105 -31 -147 -44 -42
-13 -84 -24 -93 -24 -21 0 -29 -22 -65 -175 -42 -178 -113 -469 -160 -653
l-38 -154 32 5 c35 6 26 3 314 88 211 62 213 63 190 80 -20 16 -21 20 -8 32 8
7 33 19 55 26 22 7 56 20 75 28 41 18 41 18 195 78 66 26 134 53 150 60 17 7
47 19 68 26 39 14 46 29 23 48 -8 7 -21 26 -30 44 -9 18 -27 50 -41 72 -13 22
-30 51 -38 65 -49 89 -72 128 -86 150 -9 14 -23 39 -31 55 -8 17 -29 53 -47
82 -18 29 -33 54 -33 57 0 11 -71 116 -78 115 -4 0 -36 -10 -72 -21z"/>
<path d="M4640 3740 c-8 -4 -28 -13 -45 -20 -16 -7 -38 -16 -47 -21 -10 -5
-27 -9 -37 -9 -11 0 -23 -4 -26 -10 -3 -5 -14 -10 -24 -10 -9 0 -22 -5 -29
-12 -6 -6 -20 -13 -29 -14 -9 -2 -27 -8 -40 -13 -31 -15 -61 -26 -103 -41 -19
-7 -49 -19 -67 -26 -17 -8 -38 -14 -47 -14 -9 0 -16 -4 -16 -10 0 -5 4 -10 10
-10 5 0 20 -10 34 -22 40 -38 108 -92 125 -102 9 -5 32 -23 51 -41 63 -58 218
-174 224 -168 3 3 -1 15 -9 27 -8 11 -15 27 -14 36 0 9 4 5 10 -8 14 -37 29
-16 29 43 0 30 4 65 10 80 5 14 10 49 11 78 1 28 8 66 16 84 7 18 13 55 13 83
0 28 5 60 11 71 15 28 8 58 -11 49z"/>
<path d="M5705 3710 c-3 -5 -56 -49 -118 -96 -62 -47 -113 -90 -115 -94 -2 -5
7 -12 20 -16 13 -4 77 -33 142 -66 65 -32 120 -57 122 -55 2 1 -1 45 -7 97 -5
52 -12 126 -16 163 -6 66 -15 88 -28 67z"/>
<path d="M4822 2562 l-323 -2 3 -98 3 -97 155 -2 c103 -1 156 -5 158 -13 2 -6
-24 -54 -57 -106 -34 -52 -61 -97 -61 -100 0 -3 -11 -20 -25 -38 -14 -18 -25
-36 -25 -40 0 -3 -31 -54 -70 -113 -38 -58 -67 -110 -64 -115 5 -8 614 -11
637 -2 8 3 12 34 11 100 l-1 97 -144 1 c-128 1 -144 3 -147 18 -2 10 6 31 18
48 20 28 150 247 208 350 13 25 34 58 45 73 11 16 16 32 11 35 -5 4 -154 6
-332 4z"/>
<path d="M2786 2498 c-3 -35 -10 -124 -16 -198 -6 -74 -18 -204 -26 -288 -9
-84 -13 -160 -10 -168 5 -12 26 -14 113 -12 l107 3 8 35 c4 19 8 78 9 131 1
106 8 130 33 110 8 -7 18 -23 21 -34 11 -38 107 -227 119 -234 19 -12 85 -12
94 0 21 27 106 195 117 232 9 28 18 40 31 40 18 0 19 -10 22 -130 2 -72 8
-135 14 -142 13 -16 214 -18 223 -3 4 6 2 52 -4 103 -6 50 -18 178 -27 282 -8
105 -19 222 -22 260 l-7 70 -109 0 -109 0 -73 -143 c-40 -78 -77 -156 -83
-172 -5 -17 -14 -30 -20 -30 -5 0 -49 79 -97 175 l-87 175 -108 0 -107 0 -6
-62z"/>
<path d="M3750 2553 c-1 -5 -1 -122 0 -260 1 -272 4 -290 56 -352 36 -43 124
-85 207 -101 118 -22 259 21 331 100 57 64 66 115 66 384 l0 236 -115 0 -115
0 0 -229 c0 -224 -1 -231 -23 -256 -29 -34 -96 -45 -132 -21 -52 34 -57 59
-53 292 l3 214 -112 0 c-62 0 -113 -3 -113 -7z"/>
<path d="M5262 2198 l3 -363 115 0 115 0 3 363 2 362 -120 0 -120 0 2 -362z"/>
<path d="M5589 2553 c0 -5 -1 -44 0 -87 l0 -79 89 -91 c67 -68 88 -95 83 -108
-5 -13 15 -40 75 -102 66 -68 86 -84 103 -79 18 4 41 -13 116 -86 l93 -92 83
3 82 3 -1 89 -1 89 -90 91 c-50 50 -91 96 -91 101 0 13 -162 175 -175 175 -6
0 -51 41 -100 90 l-90 90 -87 0 c-49 0 -88 -3 -89 -7z"/>
</g>
</svg>
